<?xml version="1.0" encoding="UTF-8"?><svg id="Layer_1" xmlns="http://www.w3.org/2000/svg" viewBox="0 0 417.94 178.83"><defs><style>.cls-1{font-family:Migra-Extrabold, Migra;font-size:59.45px;font-weight:700;}.cls-1,.cls-2{fill:#eac435;}.cls-3{fill:#3f382e;}.cls-4{fill:#262623;}.cls-5{letter-spacing:0em;}.cls-6{letter-spacing:0em;}</style></defs><path class="cls-3" d="m58.33,17.09l-4.13,5.24-11.38,14.45-11.38-14.45-3.67-4.67-6.15,7.82-11.38,14.45-3.23-28.9L5.78,0h0l-3.15,62.01h17.6v17.87H0v3.15h20.23v11.04c0,21.1-4.95,37.7,37.84,84.56.06.07.13.14.19.21m-14.64-86.87c-4.06,0-7.36-3.29-7.36-7.36s3.29-7.36,7.36-7.36,7.36,3.29,7.36,7.36-3.29,7.36-7.36,7.36Z"/><path class="cls-4" d="m58.25,178.83c.06-.07.13-.14.19-.21,42.79-46.85,37.84-63.45,37.84-84.56v-11.04h20.23s0-3.15,0-3.15h-20.23v-17.87h17.6S110.73,0,110.73,0h0l-1.23,11.04-3.23,28.9-11.38-14.45-6.15-7.82-3.67,4.67-11.38,14.45-11.38-14.45-3.97-5.24m7.2,67.51c0-4.06,3.29-7.36,7.36-7.36s7.36,3.29,7.36,7.36-3.29,7.36-7.36,7.36-7.36-3.29-7.36-7.36Z"/><text class="cls-1" transform="translate(164.13 85.92)"><tspan x="0" y="0">The Ma</tspan><tspan class="cls-5" x="191.26" y="0">s</tspan><tspan x="219.74" y="0">k</tspan></text><text class="cls-1" transform="translate(248.88 148.15)"><tspan x="0" y="0">Tr</tspan><tspan class="cls-6" x="65.87" y="0">u</tspan><tspan class="cls-5" x="100.71" y="0">t</tspan><tspan x="120.87" y="0">h</tspan></text><g><path class="cls-2" d="m188.27,137.2c-1.42-.93-2.53-2.19-3.33-3.78-.8-1.58-1.2-3.34-1.2-5.26,0-2.62.61-4.7,1.84-6.26,1.23-1.56,2.58-2.65,4.04-3.29,1.47-.63,2.59-.95,3.36-.95,1.72,0,3.29.47,4.71,1.4,1.42.93,2.53,2.19,3.34,3.79.81,1.6,1.22,3.34,1.22,5.25,0,2.62-.61,4.7-1.84,6.26-1.23,1.56-2.58,2.65-4.04,3.28-1.47.63-2.58.95-3.33.95-1.76,0-3.35-.47-4.77-1.4Zm8.96-1c.28-.47.42-1.14.42-2.04,0-1.94-.6-4.42-1.81-7.43-.93-2.34-1.92-4.15-2.97-5.44-1.05-1.29-2.03-1.93-2.94-1.93-.54,0-.96.24-1.26.71-.31.47-.46,1.18-.46,2.11,0,1.63.51,3.79,1.52,6.48.95,2.54,2,4.54,3.15,6.02,1.15,1.48,2.21,2.22,3.18,2.22.52,0,.91-.23,1.19-.7Z"/><path class="cls-2" d="m220.18,126.53h-.15l-1.69-2.59c-1.03-1.65-1.81-2.8-2.33-3.46-.53-.66-1.11-1.14-1.77-1.43-.65-.29-1.57-.43-2.74-.43h-.24v9.48h.57c.61,0,1.15-.1,1.62-.31.47-.21.96-.63,1.49-1.28.52-.64,1.1-1.6,1.74-2.87h.18v9.48h-.18c-.93-1.74-1.75-2.93-2.47-3.55-.71-.62-1.51-.94-2.38-.94h-.57v7.67l1.55,1.66v.18h-8.89v-.18l1.55-1.66.03-16.5-1.61-1.55v-.18h16.29v8.44Z"/></g><rect class="cls-2" x="175.98" y="108.03" width="51.96" height="2.02"/><rect class="cls-2" x="175.98" y="146.22" width="51.96" height="2.02"/></svg>