<?xml version="1.0" encoding="UTF-8"?><svg id="Layer_1" xmlns="http://www.w3.org/2000/svg" viewBox="0 0 221.71 340.3"><defs><style>.cls-1{fill:#3f382e;}.cls-2{fill:#262623;}</style></defs><path class="cls-1" d="m111,32.53l-7.85,9.97-21.65,27.5-21.65-27.5-6.99-8.88-11.71,14.88-21.65,27.5-6.15-55L11,0h0l-6,118h33.5v34H0v6h38.5v21c0,40.16-9.42,71.74,72,160.9.12.13.24.27.36.4m-27.86-165.3c-7.73,0-14-6.27-14-14s6.27-14,14-14,14,6.27,14,14-6.27,14-14,14Z"/><path class="cls-2" d="m110.85,340.3c.12-.13.24-.27.36-.4,81.42-89.16,72-120.74,72-160.9v-21h38.5s0-6,0-6h-38.5v-34h33.5S210.71,0,210.71,0h0l-2.35,21-6.15,55-21.65-27.5-11.71-14.88-6.99,8.88-21.65,27.5-21.65-27.5-7.56-9.97m13.71,128.47c0-7.73,6.27-14,14-14,7.73,0,14,6.27,14,14,0,7.73-6.27,14-14,14-7.73,0-14-6.27-14-14Z"/></svg>