<?xml version="1.0" encoding="UTF-8"?><svg id="Layer_1" xmlns="http://www.w3.org/2000/svg" viewBox="0 0 128.31 130.57"><defs><style>.cls-1{fill:#0be2ff;}</style></defs><path class="cls-1" d="m70.53,61.61c.36-30.01.66-30.37,25.56-30.8-24.9-.44-25.2-.79-25.56-30.8-.36,30.01-.66,30.37-25.56,30.8,24.9.44,25.2.79,25.56,30.8Z"/><path class="cls-1" d="m102.76,39.93c-.36,30.01-.66,30.37-25.56,30.8,24.9.44,25.2.79,25.56,30.8.36-30.01.66-30.37,25.56-30.8-24.9-.44-25.2-.79-25.56-30.8Z"/><path class="cls-1" d="m38.6,37.52c-.55,45.33-.99,45.86-38.6,46.52,37.61.66,38.05,1.19,38.6,46.52.55-45.33.99-45.86,38.6-46.52-37.61-.66-38.05-1.19-38.6-46.52Z"/></svg>